<?xml version="1.0" encoding="UTF-8"?>
<svg id="Calque_1" xmlns="http://www.w3.org/2000/svg" version="1.1" viewBox="0 0 32.84 30">
  <!-- Generator: Adobe Illustrator 29.5.1, SVG Export Plug-In . SVG Version: 2.1.0 Build 141)  -->
  <defs>
    <style>
      .st0 {
        fill: #de161d;
      }
    </style>
  </defs>
  <g id="Symbols">
    <g id="logo-pastille">
      <path id="Shape" class="st0" d="M20.48,6.87c-.56.15-.95.22-1.38.06-.31-.12-.56-.48-.79-.79L14.48.9c-.22-.31-.48-.65-.79-.79-.43-.18-.82-.06-1.38.06L0,3.48v22.95l12.35-3.29c.56-.12.98-.22,1.38-.06.31.15.56.48.79.79l3.8,5.24c.22.31.48.65.79.79.43.15.82.06,1.38-.06l12.35-3.37V3.54l-12.35,3.31h-.01Z"/>
    </g>
  </g>
</svg>