<svg xmlns="http://www.w3.org/2000/svg" width="100" height="100" viewBox="0 0 100 100"><g id="b91464d7-d5d1-46c7-be13-45f01cd49c0b" data-name="Icônes"><g id="ae66847c-bcee-4cc4-b910-51b2a77ec36b" data-name="products/calenderScheduleLater_vLarge"><g id="fdc20b88-cbb2-4389-a780-4f1ee5a91e09" data-name="Group-13"><path id="fb3691bf-ff60-4202-9098-d3c62d2eca1d" data-name="Combined-Shape" d="M68.657,8.981a1.246,1.246,0,0,1,1.234,1.076l.011.169v7.058h13.7a6.228,6.228,0,0,1,6.22,5.9l.008.331V55.953L96.4,49.387a1.247,1.247,0,0,1,1.622-.121l.14.121a1.247,1.247,0,0,1,.121,1.622l-.121.14-8.644,8.643a1.246,1.246,0,0,1-1.622.121l-.139-.121-8.642-8.643a1.246,1.246,0,0,1,1.622-1.883l.14.121,6.461,6.46V39.708H13.431v43.6a3.738,3.738,0,0,0,3.481,3.729l.256.008h39.86l26.57-.05a3.737,3.737,0,0,0,3.729-3.481l.008-.256V69.92a1.246,1.246,0,0,1,2.48-.169l.012.169V83.257a6.229,6.229,0,0,1-5.9,6.22l-.33.009-26.571.05H17.168a6.229,6.229,0,0,1-6.22-5.9l-.009-.331V23.514a6.229,6.229,0,0,1,5.9-6.22l.331-.009h13.7V10.226a1.246,1.246,0,0,1,2.48-.169l.012.169v7.058H49.141V10.226a1.246,1.246,0,0,1,2.48-.169l.011.169v7.058H67.411V10.226A1.245,1.245,0,0,1,68.657,8.981ZM63.567,72.1a1.246,1.246,0,0,1,.17,2.48l-.17.011H25.472a1.246,1.246,0,0,1-.169-2.48l.169-.011Zm9.954-9.966a1.246,1.246,0,0,1,.169,2.48l-.169.012H25.472a1.246,1.246,0,0,1-.169-2.48l.169-.012Zm0-9.965a1.246,1.246,0,0,1,.169,2.48l-.169.011H25.472a1.246,1.246,0,0,1-.169-2.48l.169-.011ZM30.87,19.775h-13.7a3.739,3.739,0,0,0-3.729,3.482l-.008.256v13.7H87.342v-13.7a3.737,3.737,0,0,0-3.481-3.729l-.256-.009H69.9v7.061a1.246,1.246,0,0,1-2.48.169l-.011-.169V19.775H51.632v7.061a1.246,1.246,0,0,1-2.48.169l-.011-.169V19.775H33.362v7.061a1.246,1.246,0,0,1-2.48.169l-.012-.169Z" fill="#e41c23"/></g></g></g></svg>